<svg xmlns="http://www.w3.org/2000/svg" width="330.992" height="324.15" viewBox="0 0 330.992 324.15"><defs><style>.a{fill:#282828;stroke:#f4f4f4;stroke-linecap:round;stroke-linejoin:round;stroke-width:15px;}.b{fill:#ffe622;}</style></defs><g transform="translate(-447.242 -1459.763)"><path class="a" d="M27,12H42.047a60.189,60.189,0,0,1,0,120.378H27" transform="translate(668.497 1568.799)"/><path class="a" d="M3,12H243.756V147.425a60.189,60.189,0,0,1-60.189,60.189H63.189A60.189,60.189,0,0,1,3,147.425Z" transform="translate(451.742 1568.799)"/><g transform="translate(9 4)"><path class="a" d="M0,0V57.505" transform="translate(505.025 1463.263)"/><path class="a" d="M0,0V57.505" transform="translate(565.77 1463.263)"/><path class="a" d="M0,0V57.505" transform="translate(626.516 1463.263)"/></g><path class="b" d="M35,139.63c-19.33,0-35-13.372-35-29.867V1.19S36.518-5.15,55.918,11.44s37.465,22.467,67.258,22.106S185,1.19,185,1.19V109.763c0,16.495-15.671,29.867-35,29.867Z" transform="translate(483 1610.37)"/></g></svg>