<svg xmlns="http://www.w3.org/2000/svg" width="20.908" height="20.908" viewBox="0 0 20.908 20.908"><defs><style>.a{fill:#ffe622;}</style></defs><path class="a" d="M6.993,17.4c0,.086-.1.156-.219.156-.139.013-.236-.056-.236-.156s.1-.156.219-.156S6.993,17.3,6.993,17.4ZM5.682,17.2c-.03.086.055.186.181.212a.2.2,0,0,0,.261-.086c.025-.086-.055-.186-.181-.225A.214.214,0,0,0,5.682,17.2Zm1.863-.073c-.122.03-.207.112-.194.212s.122.143.249.112.207-.112.194-.2S7.668,17.116,7.545,17.129ZM10.319.563A10.239,10.239,0,0,0,0,11.111,10.823,10.823,0,0,0,7.145,21.453c.54.1.729-.242.729-.523s-.013-1.747-.013-2.655c0,0-2.951.648-3.57-1.288,0,0-.481-1.258-1.172-1.582,0,0-.965-.679.067-.666a2.216,2.216,0,0,1,1.627,1.115,2.2,2.2,0,0,0,3.073.9A2.427,2.427,0,0,1,8.561,15.3c-2.356-.268-4.734-.618-4.734-4.777a3.32,3.32,0,0,1,.995-2.546,4.182,4.182,0,0,1,.11-2.936C5.813,4.76,7.84,6.209,7.84,6.209a9.718,9.718,0,0,1,5.294,0s2.028-1.453,2.909-1.167a4.18,4.18,0,0,1,.11,2.936,3.4,3.4,0,0,1,1.088,2.546c0,4.172-2.483,4.5-4.839,4.777a2.592,2.592,0,0,1,.717,2.006c0,1.457-.013,3.26-.013,3.614,0,.281.194.623.729.523a10.726,10.726,0,0,0,7.073-10.333A10.462,10.462,0,0,0,10.319.563ZM4.1,15.474c-.055.043-.042.143.03.225s.164.1.219.043.042-.143-.03-.225S4.152,15.417,4.1,15.474Zm-.455-.35c-.03.056.013.125.1.169a.124.124,0,0,0,.181-.03c.03-.056-.013-.125-.1-.169C3.739,15.067,3.672,15.08,3.642,15.123Zm1.366,1.539c-.067.056-.042.186.055.268.1.1.219.112.274.043s.03-.186-.055-.268C5.189,16.606,5.063,16.593,5.008,16.662Zm-.481-.636c-.067.043-.067.156,0,.255s.181.143.236.1a.2.2,0,0,0,0-.268C4.7,16.014,4.595,15.971,4.527,16.027Z" transform="translate(0 -0.563)"/></svg>