<svg xmlns="http://www.w3.org/2000/svg" width="20.908" height="20.908" viewBox="0 0 20.908 20.908"><defs><style>.a{fill:#ffe622;}</style></defs><path class="a" d="M19.414,2.25H1.489A1.5,1.5,0,0,0,0,3.757V21.65a1.5,1.5,0,0,0,1.489,1.507H19.414a1.5,1.5,0,0,0,1.493-1.507V3.757A1.5,1.5,0,0,0,19.414,2.25ZM6.319,20.171H3.22V10.193h3.1v9.978ZM4.77,8.83a1.8,1.8,0,1,1,1.8-1.8A1.8,1.8,0,0,1,4.77,8.83ZM17.935,20.171h-3.1V15.317c0-1.157-.023-2.646-1.61-2.646-1.615,0-1.862,1.26-1.862,2.562v4.938h-3.1V10.193h2.973v1.363h.042a3.264,3.264,0,0,1,2.935-1.61c3.136,0,3.72,2.067,3.72,4.756Z" transform="translate(0 -2.25)"/></svg>