<svg xmlns="http://www.w3.org/2000/svg" width="457" height="339" viewBox="0 0 457 339"><defs><style>.a{fill:#242424;}.b,.h{fill:#ffe622;}.c{fill:#fff;}.d{fill:#272727;}.e,.g{fill:#f4f4f4;}.f,.g,.h{stroke:none;}</style></defs><g transform="translate(-1153 -371)"><g class="a" transform="translate(1153 371)"><path class="f" d="M 401 284.5 L 20 284.5 C 13.10747051239014 284.5 7.5 278.8925170898438 7.5 272 L 7.5 20 C 7.5 13.10747051239014 13.10747051239014 7.5 20 7.5 L 401 7.5 C 407.8925170898438 7.5 413.5 13.10747051239014 413.5 20 L 413.5 272 C 413.5 278.8925170898438 407.8925170898438 284.5 401 284.5 Z"/><path class="g" d="M 20 15 C 17.24301147460938 15 15 17.24301147460938 15 20 L 15 272 C 15 274.7569885253906 17.24301147460938 277 20 277 L 401 277 C 403.7569885253906 277 406 274.7569885253906 406 272 L 406 20 C 406 17.24301147460938 403.7569885253906 15 401 15 L 20 15 M 20 0 L 401 0 C 412.045654296875 0 421 8.954345703125 421 20 L 421 272 C 421 283.045654296875 412.045654296875 292 401 292 L 20 292 C 8.954345703125 292 0 283.045654296875 0 272 L 0 20 C 0 8.954345703125 8.954345703125 0 20 0 Z"/></g><g class="a" transform="translate(1153 371)"><path class="f" d="M 413.5 67.5 L 7.5 67.5 L 7.5 20 C 7.5 13.10747051239014 13.10747051239014 7.5 20 7.5 L 401 7.5 C 407.8925170898438 7.5 413.5 13.10747051239014 413.5 20 L 413.5 67.5 Z"/><path class="g" d="M 20 15 C 17.24301147460938 15 15 17.24300003051758 15 20 L 15 60 L 406 60 L 406 20 C 406 17.24300003051758 403.7569885253906 15 401 15 L 20 15 M 20 0 L 401 0 C 412.045654296875 0 421 8.954330444335938 421 20 L 421 75 L 0 75 L 0 20 C 0 8.954330444335938 8.954345703125 0 20 0 Z"/></g><g class="b" transform="translate(1202 470)"><path class="f" d="M5,0H54a5,5,0,0,1,0,10H5A5,5,0,0,1,5,0Z"/><path class="h" d="M 5 0 L 54 0 C 56.76143264770508 0 59 2.238568305969238 59 5 C 59 7.761431694030762 56.76143264770508 10 54 10 L 5 10 C 2.238567352294922 10 0 7.761431694030762 0 5 C 0 2.238568305969238 2.238567352294922 0 5 0 Z"/></g><g class="b" transform="translate(1202 496)"><path class="f" d="M5.5,0h230a5.5,5.5,0,0,1,0,11H5.5a5.5,5.5,0,0,1,0-11Z"/><path class="h" d="M 5.5 0 L 235.5 0 C 238.5375518798828 0 241 2.462454795837402 241 5.5 C 241 8.537545204162598 238.5375518798828 11 235.5 11 L 5.5 11 C 2.46240234375 11 0 8.537545204162598 0 5.5 C 0 2.462454795837402 2.46240234375 0 5.5 0 Z"/></g><g class="b" transform="translate(1203 522)"><path class="f" d="M5.5,0h142a5.5,5.5,0,0,1,0,11H5.5a5.5,5.5,0,0,1,0-11Z"/><path class="h" d="M 5.5 0 L 147.5 0 C 150.5375671386719 0 153 2.462429046630859 153 5.5 C 153 8.537570953369141 150.5375671386719 11 147.5 11 L 5.5 11 C 2.462432861328125 11 0 8.537570953369141 0 5.5 C 0 2.462429046630859 2.462432861328125 0 5.5 0 Z"/></g><g class="c" transform="translate(1186 400)"><path class="f" d="M 8.5 9.5 C 7.948599815368652 9.5 7.5 9.051400184631348 7.5 8.5 C 7.5 7.948599815368652 7.948599815368652 7.5 8.5 7.5 C 9.051400184631348 7.5 9.5 7.948599815368652 9.5 8.5 C 9.5 9.051400184631348 9.051400184631348 9.5 8.5 9.5 Z"/><path class="g" d="M 8.5 0 C 13.19441795349121 0 17 3.805582046508789 17 8.5 C 17 13.19441795349121 13.19441795349121 17 8.5 17 C 3.805582046508789 17 0 13.19441795349121 0 8.5 C 0 3.805582046508789 3.805582046508789 0 8.5 0 Z"/></g><g class="b" transform="translate(1214 400)"><path class="f" d="M 8.5 9.5 C 7.948599815368652 9.5 7.5 9.051400184631348 7.5 8.5 C 7.5 7.948599815368652 7.948599815368652 7.5 8.5 7.5 C 9.051400184631348 7.5 9.5 7.948599815368652 9.5 8.5 C 9.5 9.051400184631348 9.051400184631348 9.5 8.5 9.5 Z"/><path class="h" d="M 8.5 0 C 13.19441795349121 0 17 3.805582046508789 17 8.5 C 17 13.19441795349121 13.19441795349121 17 8.5 17 C 3.805582046508789 17 0 13.19441795349121 0 8.5 C 0 3.805582046508789 3.805582046508789 0 8.5 0 Z"/></g><g class="c" transform="translate(1243 400)"><path class="f" d="M 8.5 9.5 C 7.948599815368652 9.5 7.5 9.051400184631348 7.5 8.5 C 7.5 7.948599815368652 7.948599815368652 7.5 8.5 7.5 C 9.051400184631348 7.5 9.5 7.948599815368652 9.5 8.5 C 9.5 9.051400184631348 9.051400184631348 9.5 8.5 9.5 Z"/><path class="g" d="M 8.5 0 C 13.19441795349121 0 17 3.805582046508789 17 8.5 C 17 13.19441795349121 13.19441795349121 17 8.5 17 C 3.805582046508789 17 0 13.19441795349121 0 8.5 C 0 3.805582046508789 3.805582046508789 0 8.5 0 Z"/></g><g class="d" transform="translate(1477 462)"><path class="f" d="M 113 240.5 L 20 240.5 C 13.10746192932129 240.5 7.5 234.8925323486328 7.5 228 L 7.5 20 C 7.5 13.10746192932129 13.10746192932129 7.5 20 7.5 L 113 7.5 C 119.8925399780273 7.5 125.5 13.10746192932129 125.5 20 L 125.5 228 C 125.5 234.8925323486328 119.8925399780273 240.5 113 240.5 Z"/><path class="g" d="M 20 15 C 17.24299621582031 15 15 17.24299621582031 15 20 L 15 228 C 15 230.7570037841797 17.24299621582031 233 20 233 L 113 233 C 115.7570037841797 233 118 230.7570037841797 118 228 L 118 20 C 118 17.24299621582031 115.7570037841797 15 113 15 L 20 15 M 20 0 L 113 0 C 124.0456848144531 0 133 8.954269409179688 133 20 L 133 228 C 133 239.0456848144531 124.0456848144531 248 113 248 L 20 248 C 8.954315185546875 248 0 239.0456848144531 0 228 L 0 20 C 0 8.954269409179688 8.954315185546875 0 20 0 Z"/></g><g class="e" transform="translate(1532 648)"><path class="f" d="M 11.5 15.5 C 9.294388771057129 15.5 7.5 13.70561122894287 7.5 11.5 C 7.5 9.294388771057129 9.294388771057129 7.5 11.5 7.5 C 13.70561122894287 7.5 15.5 9.294388771057129 15.5 11.5 C 15.5 13.70561122894287 13.70561122894287 15.5 11.5 15.5 Z"/><path class="g" d="M 11.5 0 C 17.85127258300781 0 23 5.148727416992188 23 11.5 C 23 17.85127258300781 17.85127258300781 23 11.5 23 C 5.148727416992188 23 0 17.85127258300781 0 11.5 C 0 5.148727416992188 5.148727416992188 0 11.5 0 Z"/></g><g class="b" transform="translate(1517 504)"><path class="f" d="M5,0H37a5,5,0,0,1,0,10H5A5,5,0,0,1,5,0Z"/><path class="h" d="M 5 0 L 37 0 C 39.76142120361328 0 42 2.238580226898193 42 5 C 42 7.761420249938965 39.76142120361328 10 37 10 L 5 10 C 2.238578796386719 10 0 7.761420249938965 0 5 C 0 2.238580226898193 2.238578796386719 0 5 0 Z"/></g><g class="b" transform="translate(1517 558)"><path class="f" d="M 6.5 6.998815536499023 C 5.893092632293701 6.542257785797119 5.5 5.81621265411377 5.5 5 C 5.5 4.18378734588623 5.893092632293701 3.457741975784302 6.5 3.001184701919556 C 7.106907367706299 3.457741975784302 7.5 4.18378734588623 7.5 5 C 7.5 5.81621265411377 7.106907367706299 6.542257785797119 6.5 6.998815536499023 Z"/><path class="h" d="M 5 0 L 8 0 C 10.7614164352417 0 13 2.238583564758301 13 5 C 13 7.761416435241699 10.7614164352417 10 8 10 L 5 10 C 2.238583564758301 10 0 7.761416435241699 0 5 C 0 2.238583564758301 2.238583564758301 0 5 0 Z"/></g><g class="b" transform="translate(1517 531)"><path class="f" d="M5,0H54a5,5,0,0,1,0,10H5A5,5,0,0,1,5,0Z"/><path class="h" d="M 5 0 L 54 0 C 56.76143264770508 0 59 2.238568305969238 59 5 C 59 7.761431694030762 56.76143264770508 10 54 10 L 5 10 C 2.238567352294922 10 0 7.761431694030762 0 5 C 0 2.238568305969238 2.238567352294922 0 5 0 Z"/></g></g></svg>